<?xml version="1.0" encoding="iso-8859-1"?>
<!-- Uploaded to: SVG Repo, www.svgrepo.com, Generator: SVG Repo Mixer Tools -->
<svg fill="#000000" height="800px" width="800px" version="1.1" id="Layer_1" xmlns="http://www.w3.org/2000/svg" xmlns:xlink="http://www.w3.org/1999/xlink" 
	 viewBox="0 0 512 512" xml:space="preserve">
<g>
	<g>
		<g>
			<path d="M263.296,4.469c-4.715-1.707-9.877-1.707-14.592,0L20.416,87.499L256,151.733l235.605-64.235L263.296,4.469z
				 M256,109.856c-11.776,0-21.333-9.557-21.333-21.333S244.224,67.189,256,67.189s21.333,9.557,21.333,21.333
				S267.776,109.856,256,109.856z"/>
			<path d="M277.333,190.155v19.989v298.667l220.629-80.235c8.427-3.072,14.037-11.093,14.037-20.053V126.155L277.333,190.155z
				 M341.333,408.523c-11.776,0-21.333-9.557-21.333-21.333s9.557-21.333,21.333-21.333c11.776,0,21.333,9.557,21.333,21.333
				S353.109,408.523,341.333,408.523z M405.333,323.189c-11.776,0-21.333-9.557-21.333-21.333s9.557-21.333,21.333-21.333
				s21.333,9.557,21.333,21.333S417.109,323.189,405.333,323.189z M448,237.856c-11.776,0-21.333-9.557-21.333-21.333
				s9.557-21.333,21.333-21.333s21.333,9.557,21.333,21.333S459.776,237.856,448,237.856z"/>
			<path d="M0,408.523c0,8.96,5.611,16.981,14.037,20.053l220.629,80.235V210.144v-19.989L0,126.155V408.523z M170.667,237.856
				c11.776,0,21.333,9.557,21.333,21.333s-9.557,21.333-21.333,21.333s-21.333-9.557-21.333-21.333S158.891,237.856,170.667,237.856
				z M170.667,365.856c11.776,0,21.333,9.557,21.333,21.333s-9.557,21.333-21.333,21.333s-21.333-9.557-21.333-21.333
				S158.891,365.856,170.667,365.856z M64,195.189c11.776,0,21.333,9.557,21.333,21.333S75.776,237.856,64,237.856
				s-21.333-9.557-21.333-21.333S52.224,195.189,64,195.189z M64,323.189c11.776,0,21.333,9.557,21.333,21.333
				c0,11.776-9.557,21.333-21.333,21.333s-21.333-9.557-21.333-21.333C42.667,332.747,52.224,323.189,64,323.189z"/>
		</g>
	</g>
</g>
</svg>
